Coordinates
version=1
nRows=14
nColumns=42
inDegrees=yes

Units are S.I. units (second, meters, Newtons, ...)
If the header above contains a line with 'inDegrees', this indicates whether rotational values are in degrees (yes) or radians (no).

endheader
time	pelvis_tilt	pelvis_list	pelvis_rotation	pelvis_tx	pelvis_ty	pelvis_tz	hip_flexion_r	hip_adduction_r	hip_rotation_r	knee_angle_r	knee_adduction_r	knee_angle_r_beta	ankle_angle_r	subtalar_angle_r	mtp_angle_r	hip_flexion_l	hip_adduction_l	hip_rotation_l	knee_angle_l	knee_adduction_l	knee_angle_l_beta	ankle_angle_l	subtalar_angle_l	mtp_angle_l	lumbar_extension	lumbar_bending	lumbar_rotation	arm_flex_r	arm_add_r	arm_rot_r	elbow_flex_r	pro_sup_r	wrist_flex_r	wrist_dev_r	arm_flex_l	arm_add_l	arm_rot_l	elbow_flex_l	pro_sup_l	wrist_flex_l	wrist_dev_l
      3.00000000	      4.01725278	      0.01740036	      3.35060776	     -0.19344788	      0.86825449	     -0.21556530	      9.13571444	     -6.64870241	      0.82943671	     67.96897376	      4.55267037	      1.18628238	      2.00101041	     -0.76089243	     -7.51698535	     16.03728793	      3.22348056	     -9.47362357	     36.98823105	     -5.11793511	      0.64556642	     18.54306029	     20.18182393	     -7.51698535	    -24.90194643	      4.50990292	     -3.01720311	      3.51281717	    -14.80944528	    -11.66596465	     51.27878302	     90.00000001	      0.00000000	      0.00000000	     16.66933113	    -10.39406544	     28.02870259	     47.73074394	     90.00000001	      0.00000000	      0.00000000
      3.01000000	      4.00613917	      0.04933188	      3.32413701	     -0.19032252	      0.86739397	     -0.21660579	     10.49166634	     -6.58856610	      1.19351565	     69.48989503	      4.37390218	      1.21282747	      2.86224419	     -1.30614437	     -7.51646694	     15.99815616	      3.28056063	     -9.70299723	     37.36951605	     -5.21105110	      0.65222109	     19.02706246	     20.32566466	     -7.51646694	    -25.02726058	      4.45926527	     -3.15064162	      3.43749314	    -14.80049267	    -11.94742671	     50.93933550	     90.00000001	      0.00000000	      0.00000000	     16.79699585	    -10.49257380	     27.92958672	     47.56813059	     90.00000001	      0.00000000	      0.00000000
      3.02000000	      4.10123649	      0.10480122	      3.25800926	     -0.18719974	      0.86676754	     -0.21741004	     11.71841079	     -6.51209706	      1.32590905	     70.78005215	      3.98576554	      1.23534495	      3.74060391	     -1.57631063	     -7.51613350	     15.80921443	      3.27656182	     -9.83221306	     37.74930882	     -5.10264896	      0.65884973	     19.41171519	     20.39902980	     -7.51613350	    -25.27959601	      4.35856625	     -3.25481192	      3.36173175	    -14.77933538	    -12.13957318	     50.63928699	     90.00000001	      0.00000000	      0.00000000	     16.94258618	    -10.62500258	     27.80853086	     47.41618033	     90.00000001	      0.00000000	      0.00000000
      3.03000000	      4.36703449	     -0.03010627	      3.44568834	     -0.18399999	      0.86662017	     -0.21866368	     12.53881065	     -6.29277417	      1.35550130	     71.50511585	      3.86882221	      1.24799970	      3.95496463	     -1.42228583	     -7.51592983	     15.40543636	      3.21128542	     -9.73552495	     37.98738233	     -5.18044273	      0.66300490	     19.36310349	     20.28117050	     -7.51592983	    -25.69447500	      4.60421323	     -3.51739592	      3.20343319	    -14.88504524	    -12.20832858	     50.56274226	     90.00000001	      0.00000000	      0.00000000	     17.05120229	    -10.75930578	     27.68237850	     47.43084946	     90.00000001	      0.00000000	      0.00000000
      3.04000000	      3.72669227	      0.18181474	      3.21833793	     -0.18147411	      0.86464674	     -0.21918522	     14.87908887	     -6.42630707	      1.08482358	     72.90927133	      2.99245716	      1.27250684	      5.80434870	     -1.26784505	     -7.51529957	     16.20020213	      3.45043123	    -10.18657403	     38.59331314	     -5.35333591	      0.67358038	     20.12633111	     20.70466138	     -7.51529957	    -25.13625661	      4.24142954	     -3.53152494	      3.25090547	    -14.62861381	    -12.94609002	     49.78281243	     90.00000001	      0.00000000	      0.00000000	     17.15698506	    -10.80689838	     27.56002964	     47.04779915	     90.00000001	      0.00000000	      0.00000000
      3.05000000	      3.95190134	      0.11040123	      3.27566345	     -0.17844468	      0.86458508	     -0.22006365	     15.76350380	     -6.27138877	      1.00714698	     73.25689700	      2.82168905	      1.27857405	      6.01297060	     -1.12844565	     -7.51512292	     15.79766837	      3.40433972	    -10.08200457	     38.77124954	     -5.33396897	      0.67668596	     20.09369472	     20.58138783	     -7.51512292	    -25.53780945	      4.36637052	     -3.68991286	      3.09923063	    -14.71801004	    -12.98369669	     49.72630003	     90.00000001	      0.00000000	      0.00000000	     17.28419929	    -10.96903304	     27.42909218	     47.07257302	     90.00000001	      0.00000000	      0.00000000
      3.06000000	      3.66130818	      0.31367193	      3.13835277	     -0.17554328	      0.86351946	     -0.22061542	     17.49398932	     -6.32113892	     -0.42523169	     73.85254679	      0.95247763	      1.28897010	      7.74925550	     -0.09506725	     -7.51445881	     15.99390788	      3.62357988	    -10.13684642	     39.05422181	     -5.23936310	      0.68162476	     20.73549094	     20.67670563	     -7.51445881	    -25.30609089	      4.07287699	     -3.73680980	      3.09768479	    -14.48206340	    -13.58580532	     48.96818988	     90.00000001	      0.00000000	      0.00000000	     17.36779726	    -10.97100123	     27.26362594	     46.71332717	     90.00000001	      0.00000000	      0.00000000
      3.07000000	      3.78985727	      0.27740818	      3.16061996	     -0.17254499	      0.86348733	     -0.22142276	     18.40881447	     -6.28347249	     -0.53108332	     73.71235201	      0.96781806	      1.28652324	      7.76803235	      0.11136609	     -7.51423612	     15.70270765	      3.59313408	    -10.04263094	     39.27131899	     -5.15163255	      0.68541382	     20.55227754	     20.45777543	     -7.51423612	    -25.58606250	      4.17175144	     -3.87708096	      2.88493937	    -14.51177200	    -13.56517205	     49.01176272	     90.00000001	      0.00000000	      0.00000000	     17.36279112	    -11.08211492	     27.12741760	     46.83541874	     90.00000001	      0.00000000	      0.00000000
      3.08000000	      3.74450758	      0.46872773	      3.12560442	     -0.16950502	      0.86314368	     -0.22195919	     19.69097152	     -6.32567181	     -3.01194677	     73.62580055	     -1.69287248	      1.28501263	      9.48901676	      1.99476514	     -7.51343909	     15.42927615	      3.83555399	     -9.72771988	     39.17513138	     -4.91673181	      0.68373503	     21.18111044	     20.37247312	     -7.51343909	    -25.61404308	      3.92976867	     -3.96723390	      2.91570506	    -14.34093348	    -14.14424334	     48.16445701	     90.00000001	      0.00000000	      0.00000000	     17.53139318	    -11.12669307	     26.91486793	     46.47274195	     90.00000001	      0.00000000	      0.00000000
      3.09000000	      3.77718652	      0.50016280	      3.04381663	     -0.16683776	      0.86313672	     -0.22251544	     20.72910058	     -6.36682262	     -3.24717946	     73.16235046	     -1.74648956	      1.27692390	      9.61773682	      2.11573484	     -7.51322765	     15.20689628	      3.86064708	     -9.66318196	     39.27719658	     -4.78973980	      0.68551640	     21.09559276	     20.17812342	     -7.51322765	    -25.82536016	      3.90197423	     -3.99889960	      2.76024800	    -14.38468262	    -14.12556437	     48.16947045	     90.00000001	      0.00000000	      0.00000000	     17.64374345	    -11.24913524	     26.77188857	     46.59585815	     90.00000001	      0.00000000	      0.00000000
      3.10000000	      3.90227695	      0.62095961	      3.18870283	     -0.16348032	      0.86341136	     -0.22324926	     21.51631924	     -6.44992865	     -5.91303922	     72.33184508	     -4.15228901	      1.26242885	     10.89099185	      4.24722481	     -7.51244043	     14.65226082	      4.05600350	     -9.24612643	     39.00708111	     -4.56606246	      0.68080200	     21.49846890	     20.10056672	     -7.51244043	    -25.99146877	      3.82944740	     -4.19877652	      2.71632504	    -14.19919609	    -14.59873714	     47.38478835	     90.00000001	      0.00000000	      0.00000000	     17.69890342	    -11.24616347	     26.58222828	     46.34593649	     90.00000001	      0.00000000	      0.00000000
      3.11000000	      3.82633631	      0.71517190	      3.11249342	     -0.16078117	      0.86341871	     -0.22372727	     22.55712390	     -6.57717943	     -6.17801966	     71.47417020	     -4.12987618	      1.24745960	     11.00483904	      4.30705051	     -7.51223683	     14.51129456	      4.13494201	     -9.21748130	     39.03443000	     -4.40422320	      0.68127933	     21.42376762	     19.92040456	     -7.51223683	    -26.06236724	      3.74562793	     -4.18204557	      2.51428888	    -14.24334983	    -14.58027349	     47.36942731	     90.00000001	      0.00000000	      0.00000000	     17.72932822	    -11.33927724	     26.45636237	     46.47971446	     90.00000001	      0.00000000	      0.00000000
      3.12000000	      4.00811722	      0.73302880	      3.30813903	     -0.15744838	      0.86400956	     -0.22448137	     23.10569206	     -6.66813457	     -8.68296569	     70.12075537	     -6.00741483	      1.22383806	     11.92448178	      6.24541048	     -7.51161889	     13.86611069	      4.23189279	     -8.75507947	     38.69758369	     -4.24429231	      0.67540025	     21.69526646	     20.04167391	     -7.51161889	    -26.27546298	      3.82182677	     -4.43028649	      2.52784301	    -14.11224325	    -15.01592475	     46.55969242	     90.00000001	      0.00000000	      0.00000000	     17.76024312	    -11.36467117	     26.25571248	     46.31353282	     90.00000001	      0.00000000	      0.00000000
      3.13000000	      3.86189733	      0.80124219	      3.28419264	     -0.15469162	      0.86408795	     -0.22490522	     24.09061514	     -6.80145977	     -9.22336246	     68.87312436	     -6.06514478	      1.20206279	     12.21631241	      6.42793661	     -7.51138727	     13.68044263	      4.34815550	     -8.66974905	     38.43995038	     -4.19245326	      0.67090370	     21.76721324	     19.96277425	     -7.51138727	    -26.23493075	      3.76789364	     -4.42555453	      2.31621428	    -14.12423159	    -15.04372485	     46.39073197	     90.00000001	      0.00000000	      0.00000000	     17.79366352	    -11.42493411	     26.15644043	     46.39348635	     90.00000001	      0.00000000	      0.00000000
